<svg xmlns="http://www.w3.org/2000/svg" width="1200" height="760" viewBox="0 0 1200 760" role="img" aria-labelledby="title desc">
  <title id="title">The Organizational Memory Layer</title>
  <desc id="desc">Five types of organizational memory flowing into future work.</desc>
  <defs>
    <linearGradient id="bg" x1="0" x2="1" y1="0" y2="1">
      <stop offset="0" stop-color="#ffffff"/>
      <stop offset="1" stop-color="#eef1f5"/>
    </linearGradient>
    <linearGradient id="wire" x1="0" x2="1">
      <stop offset="0" stop-color="#1477ee"/>
      <stop offset="1" stop-color="#0f63d8"/>
    </linearGradient>
  </defs>
  <rect width="1200" height="760" fill="url(#bg)"/>
  <text x="80" y="92" fill="#11141d" font-size="40" font-family="Inter, Arial, sans-serif" font-weight="700">The Organizational Memory Layer</text>
  <text x="80" y="130" fill="#616b7d" font-size="20" font-family="Inter, Arial, sans-serif">Useful memory changes future work.</text>
  <g font-family="Inter, Arial, sans-serif">
    <rect x="130" y="235" width="940" height="122" rx="8" fill="rgba(20,119,238,0.10)" stroke="url(#wire)" stroke-width="3"/>
    <text x="600" y="306" text-anchor="middle" fill="#11141d" font-size="34" font-weight="760">Organizational Memory</text>
    <g fill="none" stroke="url(#wire)" stroke-width="3">
      <path d="M240 210V235"/>
      <path d="M420 210V235"/>
      <path d="M600 210V235"/>
      <path d="M780 210V235"/>
      <path d="M960 210V235"/>
      <path d="M600 357V440"/>
      <path d="M600 440H282V488"/>
      <path d="M600 440H494V488"/>
      <path d="M600 440H706V488"/>
      <path d="M600 440H918V488"/>
    </g>
    <g fill="#11141d">
      <g transform="translate(140 154)"><rect width="200" height="56" rx="8" fill="#ffffff" stroke="#dbe1ea"/><text x="100" y="35" text-anchor="middle" font-size="17">Decision</text></g>
      <g transform="translate(320 154)"><rect width="200" height="56" rx="8" fill="#ffffff" stroke="#dbe1ea"/><text x="100" y="35" text-anchor="middle" font-size="17">Commitment</text></g>
      <g transform="translate(500 154)"><rect width="200" height="56" rx="8" fill="#ffffff" stroke="#dbe1ea"/><text x="100" y="35" text-anchor="middle" font-size="17">Pattern</text></g>
      <g transform="translate(680 154)"><rect width="200" height="56" rx="8" fill="#ffffff" stroke="#dbe1ea"/><text x="100" y="35" text-anchor="middle" font-size="17">Correction</text></g>
      <g transform="translate(860 154)"><rect width="200" height="56" rx="8" fill="#ffffff" stroke="#dbe1ea"/><text x="100" y="35" text-anchor="middle" font-size="17">Operating change</text></g>
    </g>
    <g transform="translate(170 488)" fill="#11141d">
      <g><rect width="224" height="92" rx="8" fill="#ffffff" stroke="#dbe1ea"/><text x="112" y="38" text-anchor="middle" fill="#1477ee" font-size="15" font-weight="700">Future Meetings</text><text x="112" y="65" text-anchor="middle" font-size="17">Better agendas</text></g>
      <g transform="translate(212 0)"><rect width="224" height="92" rx="8" fill="#ffffff" stroke="#dbe1ea"/><text x="112" y="38" text-anchor="middle" fill="#1477ee" font-size="15" font-weight="700">Agent Work</text><text x="112" y="65" text-anchor="middle" font-size="17">Better output</text></g>
      <g transform="translate(424 0)"><rect width="224" height="92" rx="8" fill="#ffffff" stroke="#dbe1ea"/><text x="112" y="38" text-anchor="middle" fill="#1477ee" font-size="15" font-weight="700">KPI Reviews</text><text x="112" y="65" text-anchor="middle" font-size="17">Better signal</text></g>
      <g transform="translate(636 0)"><rect width="224" height="92" rx="8" fill="#ffffff" stroke="#dbe1ea"/><text x="112" y="38" text-anchor="middle" fill="#1477ee" font-size="15" font-weight="700">Systems</text><text x="112" y="65" text-anchor="middle" font-size="17">Better behavior</text></g>
    </g>
  </g>
</svg>
