<svg xmlns="http://www.w3.org/2000/svg" width="1200" height="760" viewBox="0 0 1200 760" role="img" aria-labelledby="title desc">
  <title id="title">The Organization Brain</title>
  <desc id="desc">Four layers of organizational intelligence: memory, signal, accountability, and learning.</desc>
  <defs>
    <linearGradient id="bg" x1="0" x2="1" y1="0" y2="1">
      <stop offset="0" stop-color="#ffffff"/>
      <stop offset="0.55" stop-color="#f7f8fb"/>
      <stop offset="1" stop-color="#eef1f5"/>
    </linearGradient>
    <linearGradient id="line" x1="0" x2="1">
      <stop offset="0" stop-color="#1477ee"/>
      <stop offset="1" stop-color="#0f63d8"/>
    </linearGradient>
    <filter id="glow" x="-40%" y="-40%" width="180%" height="180%">
      <feGaussianBlur stdDeviation="7" result="blur"/>
      <feMerge>
        <feMergeNode in="blur"/>
        <feMergeNode in="SourceGraphic"/>
      </feMerge>
    </filter>
  </defs>
  <rect width="1200" height="760" rx="0" fill="url(#bg)"/>
  <g opacity="0.12" stroke="#dbe1ea" stroke-width="1">
    <path d="M80 120H1120M80 220H1120M80 320H1120M80 420H1120M80 520H1120M80 620H1120"/>
    <path d="M160 80V680M320 80V680M480 80V680M640 80V680M800 80V680M960 80V680"/>
  </g>
  <text x="80" y="88" fill="#11141d" font-size="38" font-family="Inter, Arial, sans-serif" font-weight="700">The Organization Brain</text>
  <text x="80" y="126" fill="#616b7d" font-size="20" font-family="Inter, Arial, sans-serif">The management layer where memory becomes action.</text>
  <g transform="translate(170 175)">
    <rect x="0" y="0" width="860" height="440" rx="8" fill="rgba(255,255,255,0.72)" stroke="#dbe1ea"/>
    <path d="M80 220C80 108 165 48 278 58c68 6 96 36 136 28 54-12 78-56 168-42 119 18 194 105 194 206 0 128-116 208-280 208H330C180 458 80 350 80 220Z" fill="rgba(20,119,238,0.06)" stroke="url(#line)" stroke-width="3"/>
    <g stroke="url(#line)" stroke-width="2" opacity="0.75" fill="none">
      <path d="M212 160C310 88 476 106 560 182"/>
      <path d="M190 248C338 202 482 226 650 146"/>
      <path d="M270 334C390 282 520 318 700 262"/>
      <path d="M336 132C368 248 414 322 532 386"/>
      <path d="M596 126C536 220 540 302 620 394"/>
    </g>
    <g fill="#1477ee" filter="url(#glow)">
      <circle cx="212" cy="160" r="8"/>
      <circle cx="336" cy="132" r="8"/>
      <circle cx="560" cy="182" r="8"/>
      <circle cx="650" cy="146" r="8"/>
      <circle cx="190" cy="248" r="8"/>
      <circle cx="414" cy="322" r="8"/>
      <circle cx="700" cy="262" r="8"/>
      <circle cx="532" cy="386" r="8"/>
      <circle cx="620" cy="394" r="8"/>
    </g>
  </g>
  <g font-family="Inter, Arial, sans-serif">
    <g transform="translate(92 640)">
      <rect width="238" height="70" rx="8" fill="#ffffff" stroke="#dbe1ea"/>
      <text x="22" y="30" fill="#1477ee" font-size="16" font-weight="700">Memory</text>
      <text x="22" y="52" fill="#11141d" font-size="17">Decisions and lessons</text>
    </g>
    <g transform="translate(354 640)">
      <rect width="238" height="70" rx="8" fill="#ffffff" stroke="#dbe1ea"/>
      <text x="22" y="30" fill="#1477ee" font-size="16" font-weight="700">Signal</text>
      <text x="22" y="52" fill="#11141d" font-size="17">KPIs and anomalies</text>
    </g>
    <g transform="translate(616 640)">
      <rect width="238" height="70" rx="8" fill="#ffffff" stroke="#dbe1ea"/>
      <text x="22" y="30" fill="#1477ee" font-size="16" font-weight="700">Accountability</text>
      <text x="22" y="52" fill="#11141d" font-size="17">Owners and review</text>
    </g>
    <g transform="translate(878 640)">
      <rect width="238" height="70" rx="8" fill="#ffffff" stroke="#dbe1ea"/>
      <text x="22" y="30" fill="#1477ee" font-size="16" font-weight="700">Learning</text>
      <text x="22" y="52" fill="#11141d" font-size="17">Operating change</text>
    </g>
  </g>
</svg>
